/* XPM */
static char *_66bf67a8fa041d98fa5310da13144cfEDhoAdfUl9ye4131[] = {
/* columns rows colors chars-per-pixel */
"50 50 59 1 ",
"  c #345D05",
". c #366302",
"X c #376B01",
"o c #386C04",
"O c #387200",
"+ c #387102",
"@ c #397303",
"# c #387400",
"$ c #387402",
"% c #387602",
"& c #3C7702",
"* c #397005",
"= c #397105",
"- c #3A7205",
"; c #3B7404",
": c #3C7604",
"> c #387800",
", c #397B00",
"< c #397B01",
"1 c #3C7803",
"2 c #3A7C00",
"3 c #397E00",
"4 c #3E7E03",
"5 c #3C7804",
"6 c #3D7804",
"7 c #3D7904",
"8 c #3D7A04",
"9 c #3D7B04",
"0 c #3E7E04",
"q c #3A8000",
"w c #3A8100",
"e c #3B8300",
"r c #3E8102",
"t c #3E8003",
"y c #3E8103",
"u c #3F8303",
"i c #3B8500",
"p c #3C8700",
"a c #3F8403",
"s c #3C8A00",
"d c #3D8C00",
"f c #3F8C00",
"g c #408503",
"h c #418A03",
"j c #428A03",
"k c #428B03",
"l c #438C03",
"z c #438D03",
"x c #438E03",
"c c #448F03",
"v c #449303",
"b c #449403",
"n c #449503",
"m c #459702",
"M c #459603",
"N c #469B02",
"B c #469C02",
"V c #479F02",
"C c #47A002",
/* pixels */
"#eOX,eie<eO....  XpX.XX.  ..O3O2XO,o..,O. X5>,O.,e",
",2.X,,iO<<X.....X<2...X  XXXpXO>Oe.o:#p..Xp>O,X>eO",
"eO.22i2X>OX  .O>X<>.   .O<.<eX>>e#.,O2>X<<eXXO>2#X",
",OeOOsOXXX.  Oe.XOX   .O2.Xe<XO,2Xe#OOep<eO..OO,.X",
"Oe,.,e.XX. .OpX .X.   X>X O,XX,2#,2XO<ep<<X .X,O.,",
"O>..2#.....Xp#. .X. ..XX..O>X,eOOeO.O<e<O>.  X2.Xs",
"XX O2X   XO32..... XX .XX.XOO3OX,,XO<<pOXO  .2O.,e",
"  .22. .OeOeX.>. .X>. .OX..OO<XXp#2e.,pXXX  Op.X2#",
"  OeX.Xed##,X2X XXpo..O,  .X,X.2,OeX.pO... .22 O,.",
" .pOXo2ssOO#2,.OO2,.o#iX   O,.OpOOO.OeX... X2X.XO.",
" ,pX.O,s2XO,eo>2O,O2,,0. oOp*.e,.X..<<. ...O>..XX ",
"Xe> .X,4#X,e,OeXO,ps22O.,82e.XeX   XeO  XX.OO.... ",
"X2o  Xg,2pe,O,,.O,ee,,XafX22.O,.  .e<X.<>..XX  ..X",
"O>. .g,eep,X,eX.,,pOOO0hXX2X.XX.  >eX.O2. ...  .,,",
"XX..ge2e,2XXe,XeO<pXX>8= OO..XX  .p<.XOX  ... .>,.",
"XX #mOOOOO.>2#pO.e2.XXo..XO.... .Oe..XX  .X.  X>. ",
"...be.XXe..sO,,.XeX...  .XX. ..OOO<. .. X>.   ... ",
"..8vX .,, ,iXXX <e.  .. .XO  .,O.OO   .X3X     .  ",
" .g0. XsX.,#....2<. .X. X,. .O,..OX   .OO      .. ",
" o0:  22.O,X   >eX..,..X,X  XO. .X.  .XO.   o .5. ",
" o:o .iO OO.  XpO.XeX.O>2...X. .XX .X...  .o..lo  ",
" o=. O,..XX. .e,XX<O.<OeO o. ..,X  XX .  .oo.ba   ",
".oo .#O..X.  Xp>.XOX><O2X*O..X2O  X3.  ..oeXybo   ",
". .oXXX. ...XO,. ..Xpe<OOe..X>e..OpO   oO3<Xda   .",
"  o>..X  .O2X>O.  .edeO2e*X<X,O>,,e.  .2OeX:l=  X,",
" o4.....=O0.X,X  .OpeXX2<OpOO>ep,pO  .eOO,Xht..Xpo",
":eO   .4>>XotO. *:>pOX22O<,XO,ee#2X  *pO##ep:*O,,.",
",eX  .ziXX.a:..8x.>2X22O>eO.>2e,OO. .p3XO,eO<3O,O,",
"4,  .gv...tl .8B*.X>>,XX22X#,,eOXO. OeOXOeO#pXO,ee",
",o  =b8.o:C: Xla ..O>O.Xp#2e.,eXXX  O,.Oe,Oe,.O,ep",
"O.  8g:8.lB. :hO  .X,X.e,>2XXeO... .OOOe,X,2X.O3pO",
"O. o8gbooBl .85  .XOe OpOOO OeX  . .XOO,XXe,Xe>3po",
"X. .-bz 9z- o-- .:opX.,<....,,.  ....X#O.>e>e>.p,.",
". ..8C-.9goooo.o#X<e.X3X ..XeO .Oo  .Xp..pO>>.XeX.",
"   ojz..90j9..o-eX2,.O>X...e2X.0,   .#, 2eXOX.>e..",
".. oh8.89zj. #:2>XeO.XO>X <p,X#iX   Xs.XpO....eO. ",
"o. 8go888hX =2>,X,e..Oi# .pp.Xe:   .22.X3.   OeX .",
"  .88gho8= .a=##OsO.X,i.X,p> >N. .XoeO.OO.  XpO.Xe",
"  .=0C0.oo.4pX##,#O,O2,,pep..m0 o,.O#..OX. .e3.X2>",
"  .Olbo o8>p,XO2eOe#Oess,p3 8BXXe..O#..XX  XpO.OX.",
"ooo=b0 oh-#2XX,2><eX>ppe2e:.bhX>X XOX .&..X><.....",
",o.8z=oh8.##X2iOOeX.<epe<<X8v%XoXg2.X.&OO>X>O.oX .",
"oo.0go8go oO22OX<<.O,,pOOOo8ao.5m&...&hO3.XO8ao .>",
",..88o=o .XXO2.XpO>eXepXXX.88.ol8.. XVg#X X3B%  X,",
">.o=X.oo...X2X.2,>eX.p>...X:=.=t.  .jboO. 8ma  .OO",
". ooX  o.  Oe OpO>O.O0X....o..==. .=N0.. .5ao  X>,",
" oXo..<X  XeO.e,.X..<,.  .... .. oo8zo   .o=  .2Oe",
">:. X<<  .ep.XeX . XpO  Xo.    .o,.gi.     . .5,O4",
"pX.OO3X.Opp>.O<.  .23X.O<.    XoiXo08   ..   ,sX#,",
">.po<<O<>peX.OO   *eX.Oe.    .O>, o8O  .O   =ieXO#"
};
