/* XPM */
static char *result[] = {
/* columns rows colors chars-per-pixel */
"64 64 6 1 ",
"  c #301B04",
". c #9A5F23",
"X c #4B2805",
"o c #4C2805",
"O c #91500D",
"+ c #4F2905",
/* pixels */
"                                                                ",
" .............................    ............................. ",
" ..............................  .............................. ",
" ..XXXXXXXXXXXXXXXXXXXXXXXXXXX....XXXXXXXXXXXXXXXXXXXXXXXXXXX.. ",
" ..XXXXXXXXXXXXXXXXXXXXXXXXXXX....XXXXXXXXXXXXXXXXXXXXXXXXXXX.. ",
" ..XXXoooooooooooooooooooooXXX....XXXoooooooooooooooooooooXXX.. ",
" ..XXoOOOOOOOOOOOOOOOOOOOOOoXX....XXoOOOOOOOOOOOOOOOOOOOOOoXX.. ",
" ..XXoOOOOOOOOOOOOOOOOOOOOOoXX....XXoOOOOOOOOOOOOOOOOOOOOOoXX.. ",
" ..XXoOOoooooooooooooooooOOoXX....XXoOOoooooooooooooooooOOoXX.. ",
" ..XXoOOoXXXXXXXXXXXXXXXoOOoXX....XXoOOoXXXXXXXXXXXXXXXoOOoXX.. ",
" ..XXoOOoXXXXXXXXXXXXXXXoOOoXX....XXoOOoXXXXXXXXXXXXXXXoOOoXX.. ",
" ..XXoOOoXXXXXXXXXXXXXXXoOOoXX....XXoOOoXXXXXXXXXXXXXXXoOOoXX.. ",
" ..XXoOOoXXXXXXXXXXXXXXXoOOoXX....XXoOOoXXXXXXXXXXXXXXXoOOoXX.. ",
" ..XXoOOoXXXXXXXXXXXXXXXoOOoXX....XXoOOoXXXXXXXXXXXXXXXoOOoXX.. ",
" ..XXoOOoXXXXXXXXXXXXXXXoOOoXX....XXoOOoXXXXXXXXXXXXXXXoOOoXX.. ",
" ..XXoOOoXXXXXXXXXXXXXXXoOOoXX....XXoOOoXXXXXXXXXXXXXXXoOOoXX.. ",
" ..XXoOOoXXXXXXXXXXXXXXXoOOoXX....XXoOOoXXXXXXXXXXXXXXXoOOoXX.. ",
" ..XXoOOoXXXXXXXXXXXXXXXoOOoXX....XXoOOoXXXXXXXXXXXXXXXoOOoXX.. ",
" ..XXoOOoXXXXXXXXXXXXXXXoOOoXX....XXoOOoXXXXXXXXXXXXXXXoOOoXX.. ",
" ..XXoOOoXXXXXXXXXXXXXXXoOOoXX....XXoOOoXXXXXXXXXXXXXXXoOOoXX.. ",
" ..XXoOOoXXXXXXXXXXXXXXXoOOoXX....XXoOOoXXXXXXXXXXXXXXXoOOoXX.. ",
" ..XXoOOoXXXXXXXXXXXXXXXoOOoXX....XXoOOoXXXXXXXXXXXXXXXoOOoXX.. ",
" ..XXoOOoXXXXXXXXXXXXXXXoOOoXX....XXoOOoXXXXXXXXXXXXXXXoOOoXX.. ",
" ..XXoOOoXXXXXXXXXXXXXXXoOOoXX....XXoOOoXXXXXXXXXXXXXXXoOOoXX.. ",
" ..XXoOOoXXXXXXXXXXXXXXXoOOoXX....XXoOOoXXXXXXXXXXXXXXXoOOoXX.. ",
" ..XXoOOoXXXXXXXXXXXXXXXoOOoXX....XXoOOoXXXXXXXXXXXXXXXoOOoXX.. ",
" ..XXoOOoXXXXXXXXXXXXXXXoOOoXX....XXoOOoXXXXXXXXXXXXXXXoOOoXX.. ",
" ..XXoOOoXXXXXXXXXXXXXXXoOOoXX....XXoOOoXXXXXXXXXXXXXXXoOOoXX.. ",
" ..XXoOOoXXXXXXXXXXXXXXooOOoXX....XXoOOooXXXXXXXXXXXXXXoOOoXX.. ",
" ..XXoOOoXXXXXXXXXXXoooO+OOoXX....XXoOO+OoooXXXXXXXXXXXoOOoXX.. ",
" ..XXoOOoXXXXXXXXXXoOOOO+OOoXX....XXoOO+OOOOoXXXXXXXXXXoOOoXX.. ",
" ..XXoOOoXXXXXXXXXXXoooooOOoXX....XXoOOoooooXXXXXXXXXXXoOOoXX.. ",
" ..XXoOOoXXXXXXXXXXXXXXXoOOoXX....XXoOOoXXXXXXXXXXXXXXXoOOoXX.. ",
" ..XXoOOoXXXXXXXXXXXXXXXoOOoXX....XXoOOoXXXXXXXXXXXXXXXoOOoXX.. ",
" ..XXoOOoXXXXXXXXXXXXXXXoOOoXX....XXoOOoXXXXXXXXXXXXXXXoOOoXX.. ",
" ..XXoOOoXXXXXXXXXXXXXXXoOOoXX....XXoOOoXXXXXXXXXXXXXXXoOOoXX.. ",
" ..XXoOOoXXXXXXXXXXXXXXXoOOoXX....XXoOOoXXXXXXXXXXXXXXXoOOoXX.. ",
" ..XXoOOoXXXXXXXXXXXXXXXoOOoXX....XXoOOoXXXXXXXXXXXXXXXoOOoXX.. ",
" ..XXoOOoXXXXXXXXXXXXXXXoOOoXX....XXoOOoXXXXXXXXXXXXXXXoOOoXX.. ",
" ..XXoOOoXXXXXXXXXXXXXXXoOOoXX....XXoOOoXXXXXXXXXXXXXXXoOOoXX.. ",
" ..XXoOOoXXXXXXXXXXXXXXXoOOoXX....XXoOOoXXXXXXXXXXXXXXXoOOoXX.. ",
" ..XXoOOoXXXXXXXXXXXXXXXoOOoXX....XXoOOoXXXXXXXXXXXXXXXoOOoXX.. ",
" ..XXoOOoXXXXXXXXXXXXXXXoOOoXX....XXoOOoXXXXXXXXXXXXXXXoOOoXX.. ",
" ..XXoOOoXXXXXXXXXXXXXXXoOOoXX....XXoOOoXXXXXXXXXXXXXXXoOOoXX.. ",
" ..XXoOOoXXXXXXXXXXXXXXXoOOoXX....XXoOOoXXXXXXXXXXXXXXXoOOoXX.. ",
" ..XXoOOoXXXXXXXXXXXXXXXoOOoXX....XXoOOoXXXXXXXXXXXXXXXoOOoXX.. ",
" ..XXoOOoXXXXXXXXXXXXXXXoOOoXX....XXoOOoXXXXXXXXXXXXXXXoOOoXX.. ",
" ..XXoOOoXXXXXXXXXXXXXXXoOOoXX....XXoOOoXXXXXXXXXXXXXXXoOOoXX.. ",
" ..XXoOOoXXXXXXXXXXXXXXXoOOoXX....XXoOOoXXXXXXXXXXXXXXXoOOoXX.. ",
" ..XXoOOoXXXXXXXXXXXXXXXoOOoXX....XXoOOoXXXXXXXXXXXXXXXoOOoXX.. ",
" ..XXoOOoXXXXXXXXXXXXXXXoOOoXX....XXoOOoXXXXXXXXXXXXXXXoOOoXX.. ",
" ..XXoOOoXXXXXXXXXXXXXXXoOOoXX....XXoOOoXXXXXXXXXXXXXXXoOOoXX.. ",
" ..XXoOOoXXXXXXXXXXXXXXXoOOoXX....XXoOOoXXXXXXXXXXXXXXXoOOoXX.. ",
" ..XXoOOoXXXXXXXXXXXXXXXoOOoXX....XXoOOoXXXXXXXXXXXXXXXoOOoXX.. ",
" ..XXoOOoXXXXXXXXXXXXXXXoOOoXX....XXoOOoXXXXXXXXXXXXXXXoOOoXX.. ",
" ..XXoOOoooooooooooooooooOOoXX....XXoOOoooooooooooooooooOOoXX.. ",
" ..XXoOOOOOOOOOOOOOOOOOOOOOoXX....XXoOOOOOOOOOOOOOOOOOOOOOoXX.. ",
" ..XXoOOOOOOOOOOOOOOOOOOOOOoXX....XXoOOOOOOOOOOOOOOOOOOOOOoXX.. ",
" ..XXXoooooooooooooooooooooXXX....XXXoooooooooooooooooooooXXX.. ",
" ..XXXXXXXXXXXXXXXXXXXXXXXXXXX....XXXXXXXXXXXXXXXXXXXXXXXXXXX.. ",
" ..XXXXXXXXXXXXXXXXXXXXXXXXXXX....XXXXXXXXXXXXXXXXXXXXXXXXXXX.. ",
" ..............................  .............................. ",
" .............................    ............................. ",
"                                                                "
};
