/* XPM */
static char *a1d6c4f4a41f4b7ea413cddaf64d7b30YkZxU7BaUkBOBmaj[] = {
/* columns rows colors chars-per-pixel */
"64 64 197 2 ",
"   c #010103",
".  c #0A0201",
"X  c #090904",
"o  c #03020A",
"O  c #0D0C0C",
"+  c #0E0C11",
"@  c #131214",
"#  c #181916",
"$  c #1B1B1B",
"%  c #281B0B",
"&  c #1E261D",
"*  c #30230B",
"=  c #3E360B",
"-  c #2C2213",
";  c #25221A",
":  c #3C3514",
">  c #393917",
",  c #3B331C",
"<  c #1B1A23",
"1  c #1E2323",
"2  c #222222",
"3  c #282327",
"4  c #272728",
"5  c #2F2F2F",
"6  c #3A2F24",
"7  c #2E332C",
"8  c #3B3323",
"9  c #33362A",
"0  c #33342D",
"q  c #3B332A",
"w  c #2E2D31",
"e  c #2C2B36",
"r  c #332E34",
"t  c #342E38",
"y  c #2D3433",
"u  c #2C3738",
"i  c #333334",
"p  c #393333",
"a  c #3A3A37",
"s  c #34333A",
"d  c #3D3C3D",
"f  c #423413",
"g  c #4B3B11",
"h  c #45331D",
"j  c #4A3B1B",
"k  c #423426",
"l  c #4A3F2F",
"z  c #3A4035",
"x  c #57450C",
"c  c #56481C",
"v  c #765502",
"b  c #76570E",
"n  c #665419",
"m  c #574E2C",
"M  c #45453A",
"N  c #4B4C3E",
"B  c #544F3D",
"V  c #535139",
"C  c #654F27",
"Z  c #6A5826",
"A  c #735E3D",
"S  c #7B662A",
"D  c #7B6631",
"F  c #3D3B43",
"G  c #423E43",
"H  c #444443",
"J  c #4B4B45",
"K  c #434149",
"L  c #4A4649",
"P  c #464E4D",
"I  c #4D4D4D",
"U  c #524D45",
"Y  c #514D4C",
"T  c #4B5143",
"R  c #4D504B",
"E  c #56544B",
"W  c #4C4C52",
"Q  c #4E4D52",
"!  c #514C53",
"~  c #504E5B",
"^  c #4B5353",
"/  c #525252",
"(  c #555555",
")  c #5C5D56",
"_  c #565A59",
"`  c #595959",
"'  c #5A5A5A",
"]  c #5B5B5A",
"[  c #5B5B5B",
"{  c #5C5C5C",
"}  c #5D5D5D",
"|  c #645B56",
" . c #605C5C",
".. c #5E6159",
"X. c #71704A",
"o. c #676651",
"O. c #61615D",
"+. c #5D5C63",
"@. c #5C5A6A",
"#. c #625C63",
"$. c #5E6262",
"%. c #626165",
"&. c #7C786D",
"*. c #866A03",
"=. c #856B1B",
"-. c #81692A",
";. c #8A752A",
":. c #867536",
">. c #947D3A",
",. c #8E7C44",
"<. c #947E45",
"1. c #8B7D5A",
"2. c #BB970D",
"3. c #B79719",
"4. c #94812E",
"5. c #968238",
"6. c #B5982D",
"7. c #A68935",
"8. c #AB9639",
"9. c #B49737",
"0. c #B19A39",
"q. c #D4AC1E",
"w. c #E5BD15",
"e. c #E9BC17",
"r. c #E6BD1B",
"t. c #CBAB27",
"y. c #D3AB24",
"u. c #D2AC2A",
"i. c #D6B526",
"p. c #C9AC37",
"a. c #DAB93A",
"s. c #E0BC29",
"d. c #E0BC36",
"f. c #FFCB05",
"g. c #E6C012",
"h. c #F8CB19",
"j. c #E7C626",
"k. c #F4C928",
"l. c #ECC93A",
"z. c #F1C834",
"x. c #FCD939",
"c. c #FDDA3D",
"v. c #898E56",
"b. c #A48D4D",
"n. c #AC994A",
"m. c #B39847",
"M. c #A28C56",
"N. c #B19858",
"B. c #BFA54A",
"V. c #BBA256",
"C. c #8B8C68",
"Z. c #9F9075",
"A. c #A5976A",
"S. c #AD9B77",
"D. c #B0A876",
"F. c #C5AD4C",
"G. c #CBB24E",
"H. c #D1B648",
"J. c #C7AA57",
"K. c #D2B955",
"L. c #E1BE59",
"P. c #D7BD61",
"I. c #FCD644",
"U. c #FDDA43",
"Y. c #FEDB44",
"T. c #FCD74B",
"R. c #F6D84D",
"E. c #FCD94A",
"W. c #EACC5C",
"Q. c #EED258",
"!. c #FAD655",
"~. c #F6DA55",
"^. c #FAD953",
"/. c #FAD65C",
"(. c #F7D85C",
"). c #E9D16E",
"_. c #F4D465",
"`. c #F6D766",
"'. c #FEEA7E",
"]. c #004EFF",
"[. c cyan",
"{. c #A49882",
"}. c #C9BA88",
"|. c #C7BC98",
" X c #CBC793",
".X c #E4CA84",
"XX c #EAD686",
"oX c #FEE684",
"OX c #FDE983",
"+X c #FDE689",
"@X c #F4E39D",
"#X c #F9E59B",
"$X c #F4E99C",
"%X c #EADCAC",
"&X c #F3E4A2",
"*X c #F7E6A7",
"=X c #F9E5A4",
/* pixels */
"o                                                                                                   o   o           o           ",
"                          o                                                                                 o   o           X   ",
"  s I I I I I I I I I I I I W I I I I I I I I I I I I I I I I I I I I I I I I I I I I I I I I I I I W I I I I I I I I I I I 7   ",
"  a I I I I I I I I I I I I I I I I I I I I I I I I I I I I I I I I I I I I I I I I I I I I I I I I I I I I I I I I I I I I 4   ",
"  s I I I I I I I I I I I I I I I I I I I I I I I I I I I I I I I I I I I I I I I I I I I I I I I I I I I I I I I I I I I I 4   ",
"  s I I I I I I 5 5 5 5 5 w r 7 5 5 5 5 5 5 5 7 5 5 0 w 5 w 7 r w 5 w 0 5 5 5 5 5 5 5 5 5 5 r 5 w 0 5 5 5 5 i 5 i I I I I I 5   ",
"  i I I I I I I i 5 5 5 5 5 5 5 5 5 5 r 5 5 5 r 5 5 5 5 5 5 5 5 5 0 5 5 5 5 5 5 0 w 5 5 5 5 5 5 5 w 7 r 5 5 5 5 5 I R W I I 4   ",
"  i I I I I I I 5 5 I I I I I I I I I I I I I I I I I I I I I I I I I I I I I I I I I I I I I I I I I I I I I 5 5 I I I I I 4   ",
"  i I I I I I I 5 5 I I I [.I [.I I I [.[.[.I I [.[.[.I I I [.I I I I [.[.[.I I [.[.[.I I I [.I I I [.[.[.I I w 5 I I I I I 5   ",
"  i I I I I I I 5 5 I I [.I [.I [.I I [.I I I I [.I I I I [.I [.I I I [.I I I I I [.I I I [.I [.I I [.I [.I I 0 5 I I I I I 5   ",
"  i I I I I I I 5 5 I I [.I [.I [.I I [.[.[.I I [.[.[.I I [.I [.I I I [.[.[.I I I [.I I I [.I [.I I [.[.I I I 5 5 I I I I I 4   ",
"  s I I I I I I 5 5 I I [.I [.I [.I I I I [.I I [.I I I I [.[.[.I I I I I [.I I I [.I I I [.[.[.I I [.I [.I I 5 5 I I I I I 4   ",
"  i I I I I I I 7 r I I [.I I I [.I I [.[.[.I I [.[.[.I I [.I [.I I I [.[.[.I I I [.I I I [.I [.I I [.I [.I I 5 y I I I I I 4   ",
"  s I I I I I I 5 5 I I I I I I I I I I I I I I I I I I I I I I I I I I I I I I I I I I I I I I I I I I I I I 5 r I I I I I 4   ",
"  s I I I I I I 5 5 I I I I I I I I I I I I I I I I I I I I I I I I I I I I I I I I I I I I I I I I I I I I I w 7 I I I I I 4   ",
"  i I I I I I I 5 5 I I I [.[.[.I I I [.[.[.I I [.[.[.I I [.I I [.I I [.[.[.I I [.[.[.I I [.[.[.I I [.[.[.I I 5 5 I I I I R 4   ",
"  s I I I I I I 5 5 I I [.I I I I I I [.I I I I [.I [.I I [.[.I [.I I [.I I I I [.I I I I I [.I I I [.I [.I I 5 5 I I I I I 4   ",
"  i I I I I I I w 0 I I [.I I [.[.I I [.[.[.I I [.[.I I I [.I [.[.I I [.[.[.I I [.[.[.I I I [.I I I [.I [.I I 5 5 I I I I I 5   ",
"  s I I I I I I 5 5 I I [.I I I [.I I [.I I I I [.I [.I I [.I I [.I I [.I I I I I I [.I I I [.I I I [.I [.I I 5 5 I I I I I 5   ",
"  i I I I I I I 5 5 I I I [.[.[.I I I [.[.[.I I [.I [.I I [.I I [.I I [.[.[.I I [.[.[.I I I [.I I I [.[.[.I I 5 5 I I I I I 4   ",
"  s I I I I I I 5 r I I I I I I I I I I I I I I I I I I I I I I I I I I I I I I I I I I I I I I I I I I I I I 5 i R I I I I 5   ",
"  i I I I I I I 5 5 5 5 5 5 5 w 0 5 5 5 5 5 5 r 5 5 5 5 7 5 5 5 5 5 7 r 5 5 5 5 5 5 i 5 5 5 5 5 5 5 5 7 5 w i 5 5 W I I I I 4   ",
"  i I I I I I I 5 5 7 r 5 5 7 5 w 5 w 5 5 5 7 5 5 5 5 5 r 5 5 5 5 5 5 5 5 5 5 5 5 5 5 5 5 5 5 r r 5 5 5 5 5 5 5 5 I I I I I 4   ",
"  s I I I I I I I I I I I I I I I I I I I I I I I I I I I I I 5 5 I I I I I I I I I I I I I I I I I I I I I I I I I I I I R 4   ",
"  s I I I I I I I I I I I I I I I I I I I I I I I I I I I I I r r I I I I I I I I I I I I I I I I I I I I I I I I I I I I I 5   ",
"  i I I I I I I I I I I I I I I I I I I I I I I I I I I I I I w 5 I I I I I I I I I I I I I I I I I I I I I I I I I I I I I 4   ",
"  i I I I I I I I I 5 5 5 5 5 5 5 w w 5 5 5 r 5 0 5 5 5 5 0 5 5 5 5 5 w r 5 5 5 5 5 5 5 r 7 5 5 5 5 7 w r 5 I I I I I I I I 4   ",
"  i I I I I I I I I 5 5 5 r 5 ].5 5 ].0 5 5 ].5 w 5 ].].].5 5 5 ].5 5 0 ].5 5 ].5 5 5 5 ].].].5 ].5 5 5 5 5 I I I I I I I R 4   ",
"  s I I I I I L y 5 5 5 0 5 w ].5 ].5 5 5 ].5 ].5 5 5 5 ].5 5 ].5 ].5 5 ].].7 ].5 5 7 5 5 0 ].5 ].5 5 r 5 5 5 w H W I I I I 5   ",
"  i I I I I I H 5 5 r 5 5 5 0 ].].5 5 5 5 ].5 ].0 w 5 ].i 5 5 ].0 ].5 5 ].5 ].].5 5 r 5 ].].].5 ].5 5 7 w 0 5 7 L I I I I R 4   ",
"  i w w 5 0 5 5 5 5 5 5 5 5 5 ].5 ].0 5 5 ].].].w 5 ].5 5 5 5 ].].].5 r ].5 5 ].5 5 5 5 ].5 5 5 ].r 5 5 5 w 5 5 7 5 5 5 5 5 4   ",
"  s w 7 5 5 w 5 5 5 5 5 w 5 5 ].5 5 ].w 5 ].0 ].5 5 ].].].5 5 ].5 ].5 5 ].5 5 ].5 5 r 5 ].].].5 ].5 5 5 5 5 5 5 5 5 w 7 5 5 5   ",
"  r 7 i 5 w i 0 5 0 5 5 5 5 5 y 5 5 r r 5 5 5 y 5 5 5 r 5 5 y y 5 5 r 5 5 5 5 5 0 5 5 5 5 5 w 7 r 5 5 5 5 5 5 9 5 5 5 5 5 r 5   ",
"o i P L Y Y v.v.U ! J J L / ` +.' ' ' ' ' ' ' ' ' ' ' ' ' ' ' ' ' ' ' ' ' ' ' I I ' ' ' ' ' ' ' ' W I I I W Y N C.C.V U I R 5   ",
"  s L R Y U v.X.L Q J E Q +._ @.' ' ' ' ' ' ' ' ' ' ' ' ' ' ' ' ' ' ' ' ' ' ' I W _ ' _ ' ' ' ' ` W I J I W J N X.C.U I I L 5   ",
"  i I H H H M M K G H P ~ ] { _ ] ' ] ] ] ] ' { ] ] ' ' ' ' ] ] ' { ' [ ' ' / I ' ' [ { ' ' ' ' R J I I W H M H d H G G H I 4   ",
"  p 2         o o o   ; / { ) ) ' { ' ' { ' { ' ] { ] ' ' ' ' ' ' ' ' ' ' ' I I ' { ' ' ] ] ' ( I I I L <         o       # 7   ",
"  s 2                 $ ) ) ) ' ' ' ' { ' { ' { U.U.U.' ' Y.' Y.' ' Y.' ' U.U.U.{ { ' { ' ' ' I I Y I R $                 $ 5 o ",
"  y R I J J J M L J L ' ' { ' { { { { { { { { { ' ] { { ] Y.' Y.' ' U.{ ' I U.' { { { { { { ( L I I I L I I J J J J J L L I 4   ",
"  i d $ $ $ $ < < $ $ / @.@.+...{ { { { { { { { U.U.' ' ] ' Y.' ' ' U.{ / I U.{ ' { { { ] { I I I I I W I # $ $ < < < $ # a 5   ",
"  s #           o     y @.+.+.{ ] { { { { { { { { { [ { { U.' Y.' ' Y.' I I Y.{ { { { { { ' L I I I I ~ w       o o       @ 4   ",
"o s #                 i +.+.{ ..{ { +. ...{ { { U.U.U.[ ..U.] Y.' ' Y.' I I Y.{ ..+. .{ { ( I R I R I W 7       o o       @ 5   ",
"  a H i y 0 s s i 9 d +.{ +.{ ) $.{ { { ..{ +.{ { { ' +.+.] ] ] ' ' ' I W ' { ' { { { ..] R L I I I I I I 7 i i s i i i 0 H 4   ",
"  i H i i i i y 0 s F W { { )  . . . .{ ..O.{ | { $.{ { #.{ { | #.+._ I ! #.#.{ { +.{ ..^ I Y Y Y ! I T a 7 7 s y t i i i M 7   ",
"o s #     o .     o o 1 #.{ ..' +...! w 9 0 w i w y t y y y 7 i r i w 1 y i r 9 0 i r 0 4 K I R I W ! I $                 @ 5   ",
"o s e @ O + O O + + @ p +.....%.$.+.F t i i s s , > : > : : : 8 , f = , f f f : 9 i i p e t W I R W I I w + O + O O O O @ e e   ",
"o i R H d d d M L I Y { %.{ $.+.+.{ 3 t s t t p n 8.0.:.x 8.8.:.n 0.6.:.;.6.9.<.> i p p s 4 H I R I I I W G l d d d d a l P w   ",
"  7 4             .   J +.O.#.$.{ 0 0 0 i i t k =.z.k.m.v z.k.0.*.k.k.0.3.f.k.a.= 0 t p 0 0 4 J I T J ! F o o             2 4   ",
"  7 X o         o     ; +...{ %.I 5 8 9 y y s 6 =.k.h.6.v k.h.6.*.h.h.9.2.f.f.i.= 9 i i 9 7 4 F W P ^ P < o                 4   ",
"  7 z 1 < $ ; ; 2 < 1 / $.....J 4 q 0 s u y 7 8 =.l.j.0.v I.z.9.*.z.d.9.3.h.k.H.= 7 s s i 0 r 3 F W P W J $ $ $ # $ $ $ < d 7   ",
"  3 4 4 3 3 3 3 4 3 3 3 3 3 4 3 3 3 3 3 3 3 3 3 3 3 4 3 3 3 3 3 3 3 3 3 3 3 3 3 4 3 3 3 3 3 3 3 3 3 4 3 3 3 3 3 3 3 3 3 3 3 4   ",
"  3 3 3 3 3 3 4 4 4 3 3 3 3 3 3 3 3 3 3 3 3 3 3 3 3 3 3 3 3 3 3 3 3 3 3 3 3 3 2 3 3 3 3 3 3 3 3 3 3 3 3 3 3 3 3 3 3 3 3 3 3 3   ",
"  :.p.u.y.y.y.t.p.j $ < $ # % c p.u.y.q.y.y.p.F.- $ # $ # # Z p.q.q.y.y.i.t.8.f # $ < # % ;.u.y.y.u.q.y.p.b.- $ # # # % 7.t.;.  ",
". :.i.w.w.g.e.i.6.- 3 1 ; ; * H.i.w.e.e.e.w.l.b - 2 1 1 4 f 6.i.e.e.w.w.w.s.D - 2 2 3 ; Z a.r.e.r.r.g.w.a.= - 2 1 & - c a.r.;.  ",
". b.T.U.c.x.c._.-.q i s 0 9 :.(.R.c.x.c.I.c.H.C q s y u 0 S I.U.E.U.U.c.U._.j 0 5 7 s k J.E.U.Y.I.U.c.T.F.> p s y 7 f m.!.U.4.  ",
". b.T.U.c.U.U.F.j s y 9 9 c G.R.^.I.U.c.I.~.5., 0 r u 7 : _.U.U.U.U.U.U._.n q 9 0 y 6 Z (.c.c.c.U.U.T.W.Z , i 0 0 , n.Q.T.U.5.  ",
". b.E.c.U.T.(.5.k r y 0 8 S _.I.E.U.c.c.E.`.x 8 0 0 y q Z !.U.c.U.U.U.U.P.f p 0 9 y 8 n.R.c.c.c.U.U.E.K.c i i i 9 c F.R.U.U.5.. ",
". b.T.c.c.E.`.g r y u 0 h J.^.U.c.c.c.Y.~.V.k 9 0 9 0 , m.I.U.U.U.Y.c.^.:.0 s s 7 i C K.U.x.c.U.U.E.R.4., i p 0 6 S Q.U.Y.U.5.. ",
". b.~.U.T./.;.8 0 i y q C _.T.U.U.c.U.U.W.Z i 0 i s 8 D _.T.E.U.c.Y.I.G.c s y y s 8 7.(.U.U.U.E.E.^.P.: p 7 9 p h L.^.U.U.E.>.. ",
". M.`.^.`.K.m 0 0 i p 8 N._.!.^.~.^.!.`.V.j i y s s , J._.^.!.^.^.^._.,.8 y t s i , )./.!./.^.(./._.b.q 7 0 y q A _.!.^.^.`.<.. ",
". S.#XoXXXD.N R W ! Y 1.#X+X'.'.OXOX+X+XA J R P I J 1.+X'.'.oXoXOX+XXXV T J J ^ N D.OX'.oXoXOX'.oX.XX.W R R I ) }.+XOXOXOX+XA.. ",
". {.*X&X}.V T P ! ! U |.=X=X$X$X&X=X*X}.V T N T N V %X#X$X&X*X*X=X*XM.T P N T I o. X$X#X#X=X@X@X&XS.U W W T P &.%X@X@X@X&X%XA.  ",
"  . . O X X   .   . . . . X X . X . . .               . . . . . . . . o o o   o o .   . . . . . . .         X   . . . . . . o   ",
"  . o       o o         o . o o   o   X     o o o . X           .     o     o o o     o   .           o           o       .   o "
};
